REM DIRINDEX 1\5,1\2\6,1\2\7,1\3\8,1\3\9,1\4\10,1\4\11,1\4\12
REM DIRNAME cjc026,folder01,folder02,folder03,folder04,folder05,folder06,folder07,folder08,folder09,folder10,folder11
TITLE ""
FILE "EJE_DB3000_5th_4B_43.mp3" MP3
  TRACK 01 AUDIO
    TITLE "0:"
    INDEX 01 00:00:00
  TRACK 02 AUDIO
    TITLE "10:cjc026_09846"
    INDEX 01 00:00:08
  TRACK 03 AUDIO
    TITLE "0:"
    INDEX 01 00:01:30
  TRACK 04 AUDIO
    TITLE "11:cjc026_09847"
    INDEX 01 00:01:68
  TRACK 05 AUDIO
    TITLE "0:"
    INDEX 01 00:03:26
  TRACK 06 AUDIO
    TITLE "12:cjc026_09848"
    INDEX 01 00:03:63
  TRACK 07 AUDIO
    TITLE "0:"
    INDEX 01 00:05:11
  TRACK 08 AUDIO
    TITLE "10:cjc026_09849"
    INDEX 01 00:05:46
  TRACK 09 AUDIO
    TITLE "0:"
    INDEX 01 00:07:25
  TRACK 10 AUDIO
    TITLE "11:cjc026_09850"
    INDEX 01 00:07:58
  TRACK 11 AUDIO
    TITLE "0:"
    INDEX 01 00:09:51
  TRACK 12 AUDIO
    TITLE "12:cjc026_09851"
    INDEX 01 00:10:08
  TRACK 13 AUDIO
    TITLE "0:"
    INDEX 01 00:11:60
  TRACK 14 AUDIO
    TITLE "10:cjc026_09852"
    INDEX 01 00:12:18
  TRACK 15 AUDIO
    TITLE "0:"
    INDEX 01 00:13:45
  TRACK 16 AUDIO
    TITLE "11:cjc026_09853"
    INDEX 01 00:14:05
  TRACK 17 AUDIO
    TITLE "0:"
    INDEX 01 00:15:44
  TRACK 18 AUDIO
    TITLE "12:cjc026_09854"
    INDEX 01 00:16:04
  TRACK 19 AUDIO
    TITLE "0:"
    INDEX 01 00:17:31
  TRACK 20 AUDIO
    TITLE "10:cjc026_09855"
    INDEX 01 00:17:69
  TRACK 21 AUDIO
    TITLE "0:"
    INDEX 01 00:19:19
  TRACK 22 AUDIO
    TITLE "11:cjc026_09856"
    INDEX 01 00:19:51
  TRACK 23 AUDIO
    TITLE "0:"
    INDEX 01 00:21:26
  TRACK 24 AUDIO
    TITLE "12:cjc026_09857"
    INDEX 01 00:21:63
  TRACK 25 AUDIO
    TITLE "0:"
    INDEX 01 00:23:13
  TRACK 26 AUDIO
    TITLE "10:cjc026_09858"
    INDEX 01 00:23:48
  TRACK 27 AUDIO
    TITLE "0:"
    INDEX 01 00:24:73
  TRACK 28 AUDIO
    TITLE "11:cjc026_09859"
    INDEX 01 00:25:39
  TRACK 29 AUDIO
    TITLE "0:"
    INDEX 01 00:27:24
  TRACK 30 AUDIO
    TITLE "12:cjc026_09860"
    INDEX 01 00:27:62
  TRACK 31 AUDIO
    TITLE "0:"
    INDEX 01 00:29:12
  TRACK 32 AUDIO
    TITLE "10:cjc026_09861"
    INDEX 01 00:29:49
  TRACK 33 AUDIO
    TITLE "0:"
    INDEX 01 00:31:02
  TRACK 34 AUDIO
    TITLE "11:cjc026_09862"
    INDEX 01 00:31:37
  TRACK 35 AUDIO
    TITLE "0:"
    INDEX 01 00:33:25
  TRACK 36 AUDIO
    TITLE "12:cjc026_09863"
    INDEX 01 00:33:60
  TRACK 37 AUDIO
    TITLE "0:"
    INDEX 01 00:35:12
  TRACK 38 AUDIO
    TITLE "10:cjc026_09864"
    INDEX 01 00:35:45
  TRACK 39 AUDIO
    TITLE "0:"
    INDEX 01 00:36:72
  TRACK 40 AUDIO
    TITLE "11:cjc026_09865"
    INDEX 01 00:37:33
  TRACK 41 AUDIO
    TITLE "0:"
    INDEX 01 00:38:71
  TRACK 42 AUDIO
    TITLE "12:cjc026_09866"
    INDEX 01 00:39:34
  TRACK 43 AUDIO
    TITLE "0:"
    INDEX 01 00:40:59
  TRACK 44 AUDIO
    TITLE "10:cjc026_09867"
    INDEX 01 00:41:19
  TRACK 45 AUDIO
    TITLE "0:"
    INDEX 01 00:42:49
  TRACK 46 AUDIO
    TITLE "11:cjc026_09868"
    INDEX 01 00:43:12
  TRACK 47 AUDIO
    TITLE "0:"
    INDEX 01 00:44:64
  TRACK 48 AUDIO
    TITLE "12:cjc026_09869"
    INDEX 01 00:45:27
  TRACK 49 AUDIO
    TITLE "0:"
    INDEX 01 00:46:57
  TRACK 50 AUDIO
    TITLE "10:cjc026_09870"
    INDEX 01 00:47:20
  TRACK 51 AUDIO
    TITLE "0:"
    INDEX 01 00:48:26
  TRACK 52 AUDIO
    TITLE "11:cjc026_09871"
    INDEX 01 00:48:63
  TRACK 53 AUDIO
    TITLE "0:"
    INDEX 01 00:50:21
  TRACK 54 AUDIO
    TITLE "12:cjc026_09872"
    INDEX 01 00:50:57
  TRACK 55 AUDIO
    TITLE "0:"
    INDEX 01 00:51:65
  TRACK 56 AUDIO
    TITLE "10:cjc026_09873"
    INDEX 01 00:52:28
  TRACK 57 AUDIO
    TITLE "0:"
    INDEX 01 00:53:45
  TRACK 58 AUDIO
    TITLE "11:cjc026_09874"
    INDEX 01 00:54:08
  TRACK 59 AUDIO
    TITLE "0:"
    INDEX 01 00:55:51
  TRACK 60 AUDIO
    TITLE "12:cjc026_09875"
    INDEX 01 00:56:14
  TRACK 61 AUDIO
    TITLE "0:"
    INDEX 01 00:57:31
  TRACK 62 AUDIO
    TITLE "10:cjc026_09876"
    INDEX 01 00:57:72
  TRACK 63 AUDIO
    TITLE "0:"
    INDEX 01 00:59:24
  TRACK 64 AUDIO
    TITLE "11:cjc026_09877"
    INDEX 01 00:59:62
  TRACK 65 AUDIO
    TITLE "0:"
    INDEX 01 01:01:36
  TRACK 66 AUDIO
    TITLE "12:cjc026_09878"
    INDEX 01 01:01:74
  TRACK 67 AUDIO
    TITLE "0:"
    INDEX 01 01:03:27
  TRACK 68 AUDIO
    TITLE "10:cjc026_09879"
    INDEX 01 01:03:64
  TRACK 69 AUDIO
    TITLE "0:"
    INDEX 01 01:04:60
  TRACK 70 AUDIO
    TITLE "11:cjc026_09880"
    INDEX 01 01:05:36
  TRACK 71 AUDIO
    TITLE "0:"
    INDEX 01 01:07:56
  TRACK 72 AUDIO
    TITLE "12:cjc026_09881"
    INDEX 01 01:08:19
  TRACK 73 AUDIO
    TITLE "0:"
    INDEX 01 01:09:17
